<?xml version="1.0" encoding="UTF-8" standalone="no"?>
<!-- Created with Inkscape (http://www.inkscape.org/) -->

<svg
   xmlns:dc="http://purl.org/dc/elements/1.1/"
   xmlns:cc="http://creativecommons.org/ns#"
   xmlns:rdf="http://www.w3.org/1999/02/22-rdf-syntax-ns#"
   xmlns:svg="http://www.w3.org/2000/svg"
   xmlns="http://www.w3.org/2000/svg"
   xmlns:sodipodi="http://sodipodi.sourceforge.net/DTD/sodipodi-0.dtd"
   xmlns:inkscape="http://www.inkscape.org/namespaces/inkscape"
   width="200"
   height="200"
   viewBox="0 0 200 200"
   version="1.1"
   id="svg8"
   sodipodi:docname="gmrun.svg"
   inkscape:version="0.92.1 r15371"
   inkscape:export-filename="/home/swluk/gmrun.svg.png"
   inkscape:export-xdpi="61.439999"
   inkscape:export-ydpi="61.439999">
  <defs
     id="defs2" />
  <sodipodi:namedview
     id="base"
     pagecolor="#ffffff"
     bordercolor="#666666"
     borderopacity="1.0"
     inkscape:pageopacity="0.0"
     inkscape:pageshadow="2"
     inkscape:zoom="6.135"
     inkscape:cx="66.896555"
     inkscape:cy="77.103879"
     inkscape:document-units="px"
     inkscape:current-layer="layer1"
     showgrid="false"
     units="px"
     scale-x="1"
     inkscape:window-width="2560"
     inkscape:window-height="1409"
     inkscape:window-x="1920"
     inkscape:window-y="0"
     inkscape:window-maximized="1" />
  <metadata
     id="metadata5">
    <rdf:RDF>
      <cc:Work
         rdf:about="">
        <dc:format>image/svg+xml</dc:format>
        <dc:type
           rdf:resource="http://purl.org/dc/dcmitype/StillImage" />
        <dc:title />
      </cc:Work>
    </rdf:RDF>
  </metadata>
  <g
     inkscape:label="Layer 1"
     inkscape:groupmode="layer"
     id="layer1"
     transform="translate(0,-244.0832)">
    <path
       style="fill:#dcdcdc;stroke:#000000;stroke-width:2.00000334px;stroke-linecap:butt;stroke-linejoin:miter;stroke-opacity:1;fill-opacity:1"
       d="m 199.84851,379.84558 c -63.19715,-9.6858 -66.82928,1.31975 -95.42176,-2.77696 -23.04409,-3.30175 -73.569606,2.14549 -93.533635,1.11078 -9.89928621,-13.23713 -5.1295434,-59.42866 -1.5308274,-71.61449 56.8096654,7.07596 45.4556744,-1.09679 95.0779124,1.93886 68.26697,4.17623 22.46419,-2.49425 95.40831,-2.49425"
       id="path10"
       inkscape:connector-curvature="0"
       sodipodi:nodetypes="csccsc" />
    <path
       inkscape:connector-curvature="0"
       id="path4493"
       style="font-style:normal;font-variant:normal;font-weight:normal;font-stretch:normal;font-size:medium;line-height:1.25;font-family:FreeSans;-inkscape-font-specification:FreeSans;letter-spacing:0px;word-spacing:0px;fill:#000000;fill-opacity:1;stroke:none;stroke-width:1.42845154"
       d="m 22.53177,322.01365 h -5.31384 v 41.65365 h 25.883542 v -4.68532 H 22.53177 Z" />
    <path
       inkscape:connector-curvature="0"
       id="path4495"
       style="font-style:normal;font-variant:normal;font-weight:normal;font-stretch:normal;font-size:medium;line-height:1.25;font-family:FreeSans;-inkscape-font-specification:FreeSans;letter-spacing:0px;word-spacing:0px;fill:#000000;fill-opacity:1;stroke:none;stroke-width:1.42845154"
       d="m 47.815362,342.58335 h 4.799597 c 0.399966,-3.65683 2.571213,-5.31384 7.027982,-5.31384 4.285354,0 6.685153,1.59987 6.685153,4.45677 v 1.25704 c 0,1.99983 -1.1999,2.8569 -4.971012,3.31401 -8.742123,1.14276 -14.855896,1.82841 -14.855896,9.82774 0,5.42812 3.771112,8.8564 9.827747,8.8564 3.771112,0 6.799429,-1.31417 10.170575,-4.39963 0.342828,3.02832 1.828418,4.39963 4.913873,4.39963 0.971347,0 1.714142,-0.11427 3.25687,-0.51424 v -3.5997 c -0.514243,0.11428 -0.742795,0.11428 -1.028485,0.11428 -1.657004,0 -2.571213,-0.85707 -2.571213,-2.34266 v -17.59853 c 0,-5.31383 -3.885388,-8.17074 -11.256198,-8.17074 -5.370978,0 -11.713303,1.59987 -11.998993,9.71347 z m 9.542056,18.22704 c -3.713974,0 -5.88522,-1.77128 -5.88522,-4.79959 0,-6.57088 9.99916,-4.91388 14.855896,-7.14226 v 5.37098 c 0,2.8569 -3.314008,6.57087 -8.970676,6.57087 z" />
    <path
       inkscape:connector-curvature="0"
       id="path4497"
       style="font-style:normal;font-variant:normal;font-weight:normal;font-stretch:normal;font-size:medium;line-height:1.25;font-family:FreeSans;-inkscape-font-specification:FreeSans;letter-spacing:0px;word-spacing:0px;fill:#000000;fill-opacity:1;stroke:none;stroke-width:1.42845154"
       d="m 103.06608,363.6673 v -29.94035 h -4.742458 v 16.97001 c 0,6.11377 -3.199731,10.11343 -8.170743,10.11343 -3.771112,0 -6.17091,-2.28552 -6.17091,-5.88522 V 333.72695 H 79.23951 v 23.08378 c 0,4.97101 3.713974,8.17074 9.542056,8.17074 4.399631,0 7.199396,-1.54272 9.999161,-5.48525 v 4.17108 z" />
    <path
       inkscape:connector-curvature="0"
       id="path4499"
       style="font-style:normal;font-variant:normal;font-weight:normal;font-stretch:normal;font-size:medium;line-height:1.25;font-family:FreeSans;-inkscape-font-specification:FreeSans;letter-spacing:0px;word-spacing:0px;fill:#000000;fill-opacity:1;stroke:none;stroke-width:1.42845154"
       d="m 109.9289,333.72695 v 29.94035 h 4.7996 v -16.5129 c 0,-6.11378 3.19973,-10.11344 8.1136,-10.11344 3.77111,0 6.17091,2.28552 6.17091,5.88522 v 20.74112 h 4.74246 v -22.62668 c 0,-4.97101 -3.71397,-8.17074 -9.48492,-8.17074 -4.45677,0 -7.31367,1.71414 -9.94202,5.88522 v -5.02815 z" />
    <path
       inkscape:connector-curvature="0"
       id="path4501"
       style="font-style:normal;font-variant:normal;font-weight:normal;font-stretch:normal;font-size:medium;line-height:1.25;font-family:FreeSans;-inkscape-font-specification:FreeSans;letter-spacing:0px;word-spacing:0px;fill:#000000;fill-opacity:1;stroke:none;stroke-width:1.42845154"
       d="m 164.0449,343.78325 c -0.57139,-7.14226 -4.97102,-10.91337 -11.82758,-10.91337 -8.05647,0 -13.31317,6.39947 -13.31317,16.34149 0,9.65633 5.14242,15.7701 13.25603,15.7701 7.14226,0 11.65616,-4.28535 12.22754,-11.59902 h -4.79959 c -0.79994,4.79959 -3.25687,7.19939 -7.31368,7.19939 -5.2567,0 -8.39929,-4.28535 -8.39929,-11.37047 0,-7.48509 3.08545,-11.94186 8.28502,-11.94186 3.99966,0 6.51374,2.34266 7.08512,6.51374 z" />
    <path
       inkscape:connector-curvature="0"
       id="path4503"
       style="font-style:normal;font-variant:normal;font-weight:normal;font-stretch:normal;font-size:medium;line-height:1.25;font-family:FreeSans;-inkscape-font-specification:FreeSans;letter-spacing:0px;word-spacing:0px;fill:#000000;fill-opacity:1;stroke:none;stroke-width:1.42845154"
       d="m 188.54909,342.92618 v 20.74112 h 4.74246 v -22.62668 c 0,-5.02814 -3.5997,-8.17074 -9.42778,-8.17074 -4.22822,0 -6.79943,1.31418 -9.5992,4.97101 v -15.82724 h -4.74246 v 41.65365 h 4.74246 v -16.5129 c 0,-6.11378 3.19973,-10.11344 8.11361,-10.11344 2.45693,0 6.17091,1.1999 6.17091,5.88522 z" />
  </g>
</svg>
